<?xml version="1.0" standalone="no"?>
<svg xmlns:xlink="http://www.w3.org/1999/xlink" id="wave" style="transform:rotate(0deg); transition: 0.3s" viewBox="0 0 1440 120" version="1.1" xmlns="http://www.w3.org/2000/svg"><defs><linearGradient id="sw-gradient-0" x1="0" x2="0" y1="1" y2="0"><stop stop-color="rgba(33, 38, 99, 1)" offset="0%"/><stop stop-color="rgba(33, 38, 99, 1)" offset="100%"/></linearGradient></defs><path style="transform:translate(0, 0px); opacity:1" fill="url(#sw-gradient-0)" d="M0,24L80,30C160,36,320,48,480,50C640,52,800,44,960,36C1120,28,1280,20,1440,30C1600,40,1760,68,1920,74C2080,80,2240,64,2400,58C2560,52,2720,56,2880,64C3040,72,3200,84,3360,80C3520,76,3680,56,3840,56C4000,56,4160,76,4320,80C4480,84,4640,72,4800,58C4960,44,5120,28,5280,36C5440,44,5600,76,5760,84C5920,92,6080,76,6240,68C6400,60,6560,60,6720,60C6880,60,7040,60,7200,64C7360,68,7520,76,7680,78C7840,80,8000,76,8160,72C8320,68,8480,64,8640,60C8800,56,8960,52,9120,56C9280,60,9440,72,9600,82C9760,92,9920,100,10080,88C10240,76,10400,44,10560,34C10720,24,10880,36,11040,50C11200,64,11360,80,11440,88L11520,96L11520,120L11440,120C11360,120,11200,120,11040,120C10880,120,10720,120,10560,120C10400,120,10240,120,10080,120C9920,120,9760,120,9600,120C9440,120,9280,120,9120,120C8960,120,8800,120,8640,120C8480,120,8320,120,8160,120C8000,120,7840,120,7680,120C7520,120,7360,120,7200,120C7040,120,6880,120,6720,120C6560,120,6400,120,6240,120C6080,120,5920,120,5760,120C5600,120,5440,120,5280,120C5120,120,4960,120,4800,120C4640,120,4480,120,4320,120C4160,120,4000,120,3840,120C3680,120,3520,120,3360,120C3200,120,3040,120,2880,120C2720,120,2560,120,2400,120C2240,120,2080,120,1920,120C1760,120,1600,120,1440,120C1280,120,1120,120,960,120C800,120,640,120,480,120C320,120,160,120,80,120L0,120Z"/></svg>